# xmcd
#
# Track frame offsets:
#	150
#	15835
#	30484
#	44355
#	56321
#	74219
#	92052
#	104017
#	126247
#	141072
#	155619
#	172171
#
# Disc length: 2490 seconds
#
# Revision: 0
# Processed by: cddbd v1.5.2PL0 Copyright (c) Steve Scherf et al.
# Submitted via: EasyCDDAExtractor 16.0.6.1
#
DISCID=a509b80c
DTITLE=Καζαντζίδης Στέλιος - Μεγάλες στιγμές-Σ. Καζαντζίδης
DYEAR=1997
DGENRE=Λαϊκή
TTITLE0=Το πέλαγο είναι βαθύ [Μάνος Χατζιδάκις]
TTITLE1=Ποιος δρόμος είναι ανοιχτός [Γιάν. Μαρκόπουλος-Δημ. Χριστοδούλου]
TTITLE2=Άπονη ζωή [Σταύρος Ξαρχάκος-Λευτέρης Παπαδόπουλος]
TTITLE3=Στα χέρια σου μεγάλωσαν [Σταύρος Ξαρχάκος-Λευτ. Παπαδόπουλος]
TTITLE4=Καϋμός [Μίκης Θεοδωράκης-Δημήτρης Χριστοδούλου]
TTITLE5=Μετανάστης [Μίκης Θεοδωράκης-Δημήτρης Χριστοδούλου]
TTITLE6=Ο κυρ Αντώνης [Μάνος Χατζιδάκις]
TTITLE7=Το Σαββατόβραδο [Μίκης Θεοδωράκης-Τάσος Λειβαδίτης]
TTITLE8=Απόκληρος της κοινωνίας [Στέλιος Καζαντζίδης-Κώστας Βίρβος]
TTITLE9=Θεσσαλονίκη μου [Μανώλης Χιώτης-Χρήστος Κολοκοτρώνης]
TTITLE10=Ένας σκύλος και μιά γυναίκα [Απ. Καλδάρας-Γιώργος Σαμολαδάς]
TTITLE11=Αυτή η νύχτα μένει [Στέλιος Καζαντζίδης]
EXTD=
EXTT0=
EXTT1=
EXTT2=
EXTT3=
EXTT4=
EXTT5=
EXTT6=
EXTT7=
EXTT8=
EXTT9=
EXTT10=
EXTT11=
PLAYORDER=
